<svg width="25" height="20" viewBox="0 0 25 20" fill="none" xmlns="http://www.w3.org/2000/svg">
<rect width="25" height="20" fill="#1E1E1E"/>
<g clip-path="url(#clip0_0_1)">
<rect width="1366" height="6941" transform="translate(-770 -5657)" fill="white"/>
<path d="M-577 -170C-577 -171.105 -576.105 -172 -575 -172H401C402.105 -172 403 -171.105 403 -170V-2C403 -0.895432 402.105 0 401 0H23.3284C22.798 0 22.2893 0.210709 21.9142 0.585785L5.91418 16.5858C4.6543 17.8457 2.5 16.9534 2.5 15.1716V2C2.5 0.895432 1.60455 0 0.5 0H-575C-576.105 0 -577 -0.895432 -577 -2V-170Z" fill="url(#paint0_linear_0_1)"/>
</g>
<defs>
<linearGradient id="paint0_linear_0_1" x1="-684.8" y1="-76" x2="496.1" y2="-76" gradientUnits="userSpaceOnUse">
<stop stop-color="#CD1A40"/>
<stop offset="1" stop-color="#FF803C"/>
</linearGradient>
<clipPath id="clip0_0_1">
<rect width="1366" height="6941" fill="white" transform="translate(-770 -5657)"/>
</clipPath>
</defs>
</svg>
